<svg width="203" height="202" xmlns="http://www.w3.org/2000/svg" xmlns:xlink="http://www.w3.org/1999/xlink" overflow="hidden"><defs><clipPath id="clip0"><path d="M896 40 1099 40 1099 242 896 242Z" fill-rule="evenodd" clip-rule="evenodd"/></clipPath></defs><g clip-path="url(#clip0)" transform="translate(-896 -40)"><path d="M997.5 40C941.982 40 897 85.2056 897 141 897 196.794 941.982 242 997.5 242 1053.02 242 1098 196.794 1098 141 1098 85.2056 1053.02 40 997.5 40ZM997.5 79.0968C1017.19 79.0968 1033.16 95.1427 1033.16 114.935 1033.16 134.728 1017.19 150.774 997.5 150.774 977.805 150.774 961.839 134.728 961.839 114.935 961.839 95.1427 977.805 79.0968 997.5 79.0968ZM997.5 219.194C973.712 219.194 952.397 208.36 938.132 191.419 945.751 177.002 960.664 167.065 978.048 167.065 979.021 167.065 979.994 167.227 980.926 167.513 986.194 169.223 991.705 170.323 997.5 170.323 1003.29 170.323 1008.85 169.223 1014.07 167.513 1015.01 167.227 1015.98 167.065 1016.95 167.065 1034.34 167.065 1049.25 177.002 1056.87 191.419 1042.6 208.36 1021.29 219.194 997.5 219.194Z" fill="#E8423C" fill-rule="evenodd"/></g></svg>