<svg width="203" height="202" xmlns="http://www.w3.org/2000/svg" xmlns:xlink="http://www.w3.org/1999/xlink" overflow="hidden"><defs><clipPath id="clip0"><path d="M670 40 873 40 873 242 670 242Z" fill-rule="evenodd" clip-rule="evenodd"/></clipPath></defs><g clip-path="url(#clip0)" transform="translate(-670 -40)"><path d="M771.5 40C715.982 40 671 85.2056 671 141 671 196.794 715.982 242 771.5 242 827.018 242 872 196.794 872 141 872 85.2056 827.018 40 771.5 40ZM771.5 79.0968C791.195 79.0968 807.161 95.1427 807.161 114.935 807.161 134.728 791.195 150.774 771.5 150.774 751.805 150.774 735.839 134.728 735.839 114.935 735.839 95.1427 751.805 79.0968 771.5 79.0968ZM771.5 219.194C747.712 219.194 726.397 208.36 712.132 191.419 719.751 177.002 734.664 167.065 752.048 167.065 753.021 167.065 753.994 167.227 754.926 167.513 760.194 169.223 765.705 170.323 771.5 170.323 777.295 170.323 782.847 169.223 788.074 167.513 789.006 167.227 789.979 167.065 790.952 167.065 808.336 167.065 823.249 177.002 830.868 191.419 816.603 208.36 795.288 219.194 771.5 219.194Z" fill="#0D47A1" fill-rule="evenodd"/></g></svg>