<svg width="211" height="212" xmlns="http://www.w3.org/2000/svg" xmlns:xlink="http://www.w3.org/1999/xlink" overflow="hidden"><defs><clipPath id="clip0"><path d="M100 359 311 359 311 571 100 571Z" fill-rule="evenodd" clip-rule="evenodd"/></clipPath><linearGradient x1="205" y1="570" x2="205" y2="360" gradientUnits="userSpaceOnUse" spreadMethod="reflect" id="fill1"><stop offset="0" stop-color="#CC2E3E"/><stop offset="0.0294118" stop-color="#CD2F3D"/><stop offset="0.0588235" stop-color="#CF303D"/><stop offset="0.0882353" stop-color="#D1313D"/><stop offset="0.117647" stop-color="#D3333D"/><stop offset="0.147059" stop-color="#D5343D"/><stop offset="0.176471" stop-color="#D6353D"/><stop offset="0.205882" stop-color="#D8363D"/><stop offset="0.235294" stop-color="#D9373D"/><stop offset="0.264706" stop-color="#DB383D"/><stop offset="0.294118" stop-color="#DC393D"/><stop offset="0.323529" stop-color="#DE3A3D"/><stop offset="0.352941" stop-color="#DF3B3D"/><stop offset="0.382353" stop-color="#E03C3D"/><stop offset="0.411765" stop-color="#E23D3D"/><stop offset="0.441176" stop-color="#E33E3D"/><stop offset="0.470588" stop-color="#E43F3D"/><stop offset="0.5" stop-color="#E5403C"/><stop offset="0.529412" stop-color="#E6403C"/><stop offset="0.558824" stop-color="#E7413C"/><stop offset="0.588235" stop-color="#E8423C"/><stop offset="0.617647" stop-color="#E9423C"/><stop offset="0.647059" stop-color="#EA433C"/><stop offset="0.676471" stop-color="#EA433C"/><stop offset="0.705882" stop-color="#EB443B"/><stop offset="0.735294" stop-color="#EC443B"/><stop offset="0.764706" stop-color="#EC453B"/><stop offset="0.794118" stop-color="#ED453B"/><stop offset="0.823529" stop-color="#ED463B"/><stop offset="0.852941" stop-color="#EE463B"/><stop offset="0.882353" stop-color="#EE463A"/><stop offset="0.911765" stop-color="#EE463A"/><stop offset="0.941176" stop-color="#EE463A"/><stop offset="0.970588" stop-color="#EE463A"/><stop offset="1" stop-color="#EF473A"/></linearGradient></defs><g clip-path="url(#clip0)" transform="translate(-100 -359)"><path d="M205.003 360C147.102 360 100 407.105 100 465 100 522.895 147.105 570 205.003 570 262.9 570 310 522.895 310 465 310 407.105 262.9 360 205.003 360ZM224.986 508.306C242.75 500.581 255.173 482.882 255.173 462.279 255.173 434.571 232.716 412.108 205.003 412.108 177.29 412.108 154.829 434.571 154.829 462.279 154.829 482.882 167.253 500.581 185.017 508.306 163.245 511.444 145.963 519.585 138.776 529.964 122.332 513.208 112.169 490.274 112.169 465 112.169 413.816 153.813 372.169 205 372.169 256.187 372.169 297.831 413.816 297.831 465 297.831 490.274 287.666 513.211 271.224 529.964 264.04 519.587 246.755 511.444 224.986 508.306Z" fill="url(#fill1)" fill-rule="evenodd"/></g></svg>